# xmcd
#
# Track frame offsets:
#	150
#	12666
#	24602
#	37544
#	50575
#	62413
#	74533
#	85761
#	98540
#	109133
#	119886
#	132283
#	144583
#	159974
#	173300
#	183083
#	195935
#	208463
#	221999
#	235993
#
# Disc length: 3320 seconds
#
# Revision: 1
# Processed by: cddbd v1.5.2PL0 Copyright (c) Steve Scherf et al.
# Submitted via: audiograbber 1.83.01
#
DISCID=160cf614
DTITLE=Various Artist - country music golden oldies essentials cd1
DYEAR=2000
DGENRE=Country
TTITLE0=hank williams - fly trouble
TTITLE1=roy rogers - yellow rose of texas
TTITLE2=hank snow - i'm movin on
TTITLE3=gene autry - high steppin' mama
TTITLE4=burl ives - on top of old smokey
TTITLE5=tennessee ernie ford - smokey mountain boogie
TTITLE6=porter wagoner - itchin' for my baby
TTITLE7=roy acuff - the prodigal son
TTITLE8=slim whitman - rose marie
TTITLE9=merle travis - done rovin'
TTITLE10=hank williams and the drifting cowboys - cold cold heart
TTITLE11=bob wills and his texas playboys - roly poly
TTITLE12=tex ritter - i dreamed of a hill - billy heaven
TTITLE13=tex williams and his western caravan - artistry in western swing
TTITLE14=merle travis - deep south
TTITLE15=tennessee ernie ford - stack o lee
TTITLE16=burl ives - big rock candy mountain
TTITLE17=red foley - smoke on the water
TTITLE18=jimmie rodgers - blue yodel no 4
TTITLE19=ernest tubb - slippin' around
EXTD=
EXTT0=
EXTT1=
EXTT2=
EXTT3=
EXTT4=
EXTT5=
EXTT6=
EXTT7=
EXTT8=
EXTT9=
EXTT10=
EXTT11=
EXTT12=
EXTT13=
EXTT14=
EXTT15=
EXTT16=
EXTT17=
EXTT18=
EXTT19=
PLAYORDER=
